HIERARCHY
ROOT Yihan_28_06:Solving:Hips
{
	OFFSET 0.000000 0.000000 0.000000
	CHANNELS 6 Xposition Yposition Zposition Xrotation Yrotation Zrotation
	JOINT Yihan_28_06:Solving:Spine
	{
		OFFSET 0.000000 -10.933681 1.754050
		CHANNELS 6 Xposition Yposition Zposition Xrotation Yrotation Zrotation
		JOINT Yihan_28_06:Solving:Spine1
		{
			OFFSET 0.000000 -9.267541 1.634120
			CHANNELS 6 Xposition Yposition Zposition Xrotation Yrotation Zrotation
			JOINT Yihan_28_06:Solving:Spine2
			{
				OFFSET 0.000000 -9.374699 0.820182
				CHANNELS 6 Xposition Yposition Zposition Xrotation Yrotation Zrotation
				JOINT Yihan_28_06:Solving:Spine3
				{
					OFFSET 0.000000 -9.410507 0.000000
					CHANNELS 6 Xposition Yposition Zposition Xrotation Yrotation Zrotation
					JOINT Yihan_28_06:Solving:Neck
					{
						OFFSET 0.000000 -12.099224 -1.209920
						CHANNELS 6 Xposition Yposition Zposition Xrotation Yrotation Zrotation
						JOINT Yihan_28_06:Solving:Neck1
						{
							OFFSET 0.000000 -7.349789 -0.643021
							CHANNELS 6 Xposition Yposition Zposition Xrotation Yrotation Zrotation
							JOINT Yihan_28_06:Solving:Head
							{
								OFFSET 0.000000 -7.265778 -1.281152
								CHANNELS 6 Xposition Yposition Zposition Xrotation Yrotation Zrotation
								JOINT Yihan_28_06:Solving:HeadEnd
								{
									OFFSET 0.000000 -9.728081 0.000002
									CHANNELS 6 Xposition Yposition Zposition Xrotation Yrotation Zrotation
									End Site
									{
										OFFSET 0.000000 -9.728081 0.000002
									}
								}
							}
						}
					}
					JOINT Yihan_28_06:Solving:RightShoulder
					{
						OFFSET 0.000000 -8.642303 -5.270916
						CHANNELS 6 Xposition Yposition Zposition Xrotation Yrotation Zrotation
						JOINT Yihan_28_06:Solving:RightArm
						{
							OFFSET -17.619331 -0.000004 0.000000
							CHANNELS 6 Xposition Yposition Zposition Xrotation Yrotation Zrotation
							JOINT Yihan_28_06:Solving:RightForeArm
							{
								OFFSET -29.732449 -0.000008 0.000000
								CHANNELS 6 Xposition Yposition Zposition Xrotation Yrotation Zrotation
								JOINT Yihan_28_06:Solving:RightHand
								{
									OFFSET -23.617275 -0.000008 0.000000
									CHANNELS 6 Xposition Yposition Zposition Xrotation Yrotation Zrotation
									JOINT Yihan_28_06:Solving:RightHandThumb1
									{
										OFFSET -3.546165 2.953053 -2.636890
										CHANNELS 6 Xposition Yposition Zposition Xrotation Yrotation Zrotation
										End Site
										{
											OFFSET -5.198463 0.000000 -5.246530
										}
									}
									JOINT Yihan_28_06:Solving:RightHandMiddle1
									{
										OFFSET -9.456436 -0.000004 0.060618
										CHANNELS 6 Xposition Yposition Zposition Xrotation Yrotation Zrotation
										End Site
										{
											OFFSET -7.385803 -0.000004 0.000000
										}
									}
								}
							}
						}
					}
					JOINT Yihan_28_06:Solving:LeftShoulder
					{
						OFFSET 0.000000 -8.642303 -5.270916
						CHANNELS 6 Xposition Yposition Zposition Xrotation Yrotation Zrotation
						JOINT Yihan_28_06:Solving:LeftArm
						{
							OFFSET 17.619331 -0.000004 0.000000
							CHANNELS 6 Xposition Yposition Zposition Xrotation Yrotation Zrotation
							JOINT Yihan_28_06:Solving:LeftForeArm
							{
								OFFSET 29.732449 -0.000008 0.000000
								CHANNELS 6 Xposition Yposition Zposition Xrotation Yrotation Zrotation
								JOINT Yihan_28_06:Solving:LeftHand
								{
									OFFSET 23.617275 -0.000008 0.000000
									CHANNELS 6 Xposition Yposition Zposition Xrotation Yrotation Zrotation
									JOINT Yihan_28_06:Solving:LeftHandThumb1
									{
										OFFSET 3.546165 2.953053 -2.636890
										CHANNELS 6 Xposition Yposition Zposition Xrotation Yrotation Zrotation
										End Site
										{
											OFFSET 5.198463 0.000000 -5.246530
										}
									}
									JOINT Yihan_28_06:Solving:LeftHandMiddle1
									{
										OFFSET 9.456436 -0.000004 0.060618
										CHANNELS 6 Xposition Yposition Zposition Xrotation Yrotation Zrotation
										End Site
										{
											OFFSET 7.385803 -0.000004 0.000000
										}
									}
								}
							}
						}
					}
				}
			}
		}
	}
	JOINT Yihan_28_06:Solving:RightUpLeg
	{
		OFFSET -12.221851 0.000000 0.000000
		CHANNELS 6 Xposition Yposition Zposition Xrotation Yrotation Zrotation
		JOINT Yihan_28_06:Solving:RightLeg
		{
			OFFSET 0.000000 44.387260 -0.000006
			CHANNELS 6 Xposition Yposition Zposition Xrotation Yrotation Zrotation
			JOINT Yihan_28_06:Solving:RightFoot
			{
				OFFSET 0.000000 37.410240 -0.000006
				CHANNELS 6 Xposition Yposition Zposition Xrotation Yrotation Zrotation
				JOINT Yihan_28_06:Solving:RightForeFoot
				{
					OFFSET 0.000000 4.107742 -0.000000
					CHANNELS 6 Xposition Yposition Zposition Xrotation Yrotation Zrotation
					JOINT Yihan_28_06:Solving:RightToeBase
					{
						OFFSET 0.000000 0.000000 -16.087208
						CHANNELS 6 Xposition Yposition Zposition Xrotation Yrotation Zrotation
						JOINT Yihan_28_06:Solving:RightToeBaseEnd
						{
							OFFSET 0.000000 0.000000 -3.506769
							CHANNELS 6 Xposition Yposition Zposition Xrotation Yrotation Zrotation
							End Site
							{
								OFFSET 0.000000 -3.506767 0.000000
							}
						}
					}
				}
			}
		}
	}
	JOINT Yihan_28_06:Solving:LeftUpLeg
	{
		OFFSET 12.221851 0.000000 0.000000
		CHANNELS 6 Xposition Yposition Zposition Xrotation Yrotation Zrotation
		JOINT Yihan_28_06:Solving:LeftLeg
		{
			OFFSET 0.000000 44.387260 -0.000006
			CHANNELS 6 Xposition Yposition Zposition Xrotation Yrotation Zrotation
			JOINT Yihan_28_06:Solving:LeftFoot
			{
				OFFSET 0.000000 37.410240 -0.000006
				CHANNELS 6 Xposition Yposition Zposition Xrotation Yrotation Zrotation
				JOINT Yihan_28_06:Solving:LeftForeFoot
				{
					OFFSET 0.000000 4.107742 -0.000000
					CHANNELS 6 Xposition Yposition Zposition Xrotation Yrotation Zrotation
					JOINT Yihan_28_06:Solving:LeftToeBase
					{
						OFFSET 0.000000 0.000000 -16.087208
						CHANNELS 6 Xposition Yposition Zposition Xrotation Yrotation Zrotation
						JOINT Yihan_28_06:Solving:LeftToeBaseEnd
						{
							OFFSET 0.000000 0.000000 -3.932585
							CHANNELS 6 Xposition Yposition Zposition Xrotation Yrotation Zrotation
							End Site
							{
								OFFSET 0.000000 -3.932587 0.000000
							}
						}
					}
				}
			}
		}
	}
}
MOTION
Frames: 5
Frame Time: 0.041667
-3.443684 -60.388737 -88.879181 87.144007 -0.967942 0.763935 0.000000 -10.933665 1.754048 14.227577 -0.683256 -0.124962 -0.000000 -9.267537 1.634106 -0.211336 0.000657 -0.161602 0.000000 -9.374714 0.820189 -1.273556 -2.642017 -0.381654 -0.000000 -9.410510 0.000008 0.783211 -0.115298 0.537300 -0.000001 -12.099236 -1.209921 -8.918514 -5.518805 1.989835 -0.000002 -7.349763 -0.643022 2.683165 -1.033516 -0.323028 -0.000000 -7.265765 -1.281153 9.133728 -0.104100 -0.403900 -0.000000 -9.728096 0.000013 -0.000002 0.000001 -0.000000 0.000000 -8.642307 -5.270924 -0.000005 12.347768 4.266307 -17.619333 -0.000001 0.000005 -10.786514 -60.181104 -84.141654 -29.732452 -0.000007 0.000001 24.938861 -22.169237 9.952123 -23.617277 -0.000018 -0.000002 2.379169 7.808004 -17.005115 -3.546173 2.953047 -2.636893 -0.000002 -0.000000 0.000000 -9.456479 0.000003 0.060615 0.000002 0.000000 0.000003 -0.000001 -8.642307 -5.270923 -0.000001 -11.051200 -6.453502 17.619326 -0.000003 -0.000023 -2.316358 47.691089 80.098817 29.732473 -0.000018 0.000004 -1.412120 26.193569 0.623458 23.617287 -0.000027 -0.000001 -1.431585 -9.938801 -8.238767 3.546164 2.953045 -2.636885 -0.000007 0.000002 -0.000001 9.456463 0.000014 0.060621 -0.000003 0.000001 -0.000004 -12.221851 0.000026 0.000004 11.575735 6.414543 -2.855674 -0.000002 44.387291 -0.000009 1.599726 -0.000001 0.000000 -0.000001 37.410233 -0.000003 -8.018104 14.151781 2.173880 0.000001 4.107742 -0.000010 -0.000000 -0.000003 -0.000000 0.000008 0.000017 -16.087219 12.265601 0.000001 -0.000000 0.000000 0.000030 -3.506765 -0.000003 0.000002 0.000001 12.221854 0.000026 0.000008 -18.296832 -8.611167 -9.202057 0.000001 44.387260 -0.000003 26.960138 -0.000000 0.000002 0.000000 37.410248 -0.000005 -4.477132 2.580386 11.302110 0.000002 4.107742 -0.000010 -0.000000 0.000002 -0.000000 -0.000002 0.000007 -16.087217 -15.738629 0.000002 0.000001 -0.000006 -0.000015 -3.932583 0.000002 -0.000001 -0.000001 
-3.247831 -60.127686 -88.842628 87.401805 -0.897956 0.766820 0.000000 -10.933693 1.754055 14.027145 -0.671840 -0.152611 0.000000 -9.267533 1.634109 -0.211431 0.008909 -0.174809 0.000000 -9.374702 0.820171 -1.259375 -2.710104 -0.390635 -0.000000 -9.410520 0.000015 0.820631 -0.117749 0.601298 -0.000001 -12.099232 -1.209914 -8.910749 -5.663350 1.925860 0.000000 -7.349793 -0.643012 2.725953 -1.088902 -0.345055 0.000002 -7.265805 -1.281148 9.168025 -0.104350 -0.426327 0.000002 -9.728043 0.000004 -0.000001 0.000002 -0.000000 -0.000002 -8.642307 -5.270913 -0.000005 12.170295 4.472487 -17.619331 0.000037 0.000009 -10.477749 -60.634233 -83.448697 -29.732431 -0.000002 0.000004 26.298984 -22.396373 10.663746 -23.617256 -0.000020 -0.000003 2.608360 8.307740 -17.499377 -3.546164 2.953041 -2.636901 -0.000005 0.000003 0.000002 -9.456442 -0.000001 0.060611 0.000000 0.000000 0.000002 -0.000003 -8.642307 -5.270913 -0.000002 -11.225823 -6.547376 17.619337 -0.000021 0.000003 -1.682030 48.316704 78.909175 29.732430 -0.000014 -0.000013 -1.990790 26.597156 0.891626 23.617262 -0.000023 -0.000007 -1.073535 -9.861663 -6.243911 3.546139 2.953053 -2.636897 -0.000005 0.000003 -0.000005 9.456432 0.000004 0.060613 -0.000003 -0.000000 -0.000005 -12.221852 -0.000019 0.000011 11.401712 6.793715 -2.731293 -0.000001 44.387268 -0.000011 1.783524 0.000002 -0.000000 -0.000003 37.410248 -0.000005 -8.230980 13.856805 2.181848 -0.000001 4.107742 -0.000009 0.000000 -0.000001 -0.000000 -0.000002 0.000001 -16.087225 12.247829 -0.000005 0.000000 -0.000008 0.000022 -3.506766 -0.000003 -0.000003 0.000000 12.221849 -0.000017 0.000007 -17.924279 -8.400997 -8.951515 0.000001 44.387249 -0.000014 24.424852 0.000001 0.000002 -0.000000 37.410248 -0.000007 -4.444850 1.919329 11.032747 -0.000001 4.107750 -0.000001 0.000000 0.000000 0.000000 0.000007 0.000003 -16.087204 -16.026465 -0.000002 0.000001 0.000000 -0.000007 -3.932582 0.000002 -0.000000 -0.000000 
-3.051721 -59.867844 -88.800476 87.650875 -0.802323 0.775760 -0.000000 -10.933700 1.754068 13.856510 -0.652332 -0.160542 -0.000000 -9.267589 1.634108 -0.212716 0.015612 -0.182949 0.000000 -9.374722 0.820180 -1.256939 -2.829076 -0.393122 0.000000 -9.410503 0.000018 0.854125 -0.118771 0.642465 0.000001 -12.099230 -1.209944 -8.907413 -5.820788 1.848995 0.000001 -7.349736 -0.643019 2.764528 -1.106525 -0.376511 0.000002 -7.265754 -1.281148 9.217212 -0.100346 -0.462786 -0.000002 -9.728088 -0.000007 0.000000 0.000000 0.000000 0.000001 -8.642288 -5.270950 -0.000005 12.012770 4.640794 -17.619331 0.000018 -0.000009 -9.984564 -61.197771 -82.548867 -29.732416 -0.000013 -0.000008 27.195739 -22.617398 11.177983 -23.617273 -0.000014 0.000001 2.733288 8.550780 -17.801087 -3.546135 2.953044 -2.636883 -0.000002 -0.000005 -0.000001 -9.456427 -0.000009 0.060615 0.000002 0.000000 0.000002 0.000001 -8.642284 -5.270949 -0.000007 -11.392238 -6.638002 17.619341 -0.000016 0.000006 -1.034206 48.907252 77.722068 29.732447 -0.000006 -0.000002 -2.369217 27.006863 1.076380 23.617264 -0.000012 -0.000001 -0.759279 -9.888938 -4.412487 3.546173 2.953043 -2.636894 0.000001 0.000003 0.000000 9.456460 -0.000005 0.060614 0.000002 -0.000003 0.000001 -12.221849 -0.000018 0.000022 11.197785 7.143259 -2.603878 0.000003 44.387268 -0.000013 2.037838 0.000001 -0.000000 0.000004 37.410233 -0.000017 -8.492939 13.571060 2.189592 0.000004 4.107742 -0.000029 0.000000 -0.000000 0.000000 -0.000002 0.000004 -16.087210 12.252097 -0.000002 0.000002 0.000005 0.000022 -3.506773 -0.000003 -0.000003 -0.000000 12.221852 -0.000005 0.000005 -17.548465 -8.254654 -8.713234 0.000008 44.387253 -0.000012 21.998851 0.000003 0.000001 -0.000005 37.410244 -0.000009 -4.158136 1.236788 10.866450 0.000005 4.107750 -0.000004 -0.000000 -0.000001 -0.000000 0.000004 0.000010 -16.087212 -15.963911 0.000001 -0.000001 0.000001 -0.000007 -3.932580 0.000003 -0.000001 0.000000 
-2.841742 -59.569290 -88.747070 87.801501 -0.704480 0.778500 -0.000001 -10.933687 1.754051 13.761779 -0.644048 -0.164975 -0.000000 -9.267550 1.634115 -0.220451 0.021100 -0.186415 0.000000 -9.374704 0.820187 -1.243150 -2.905730 -0.404796 0.000000 -9.410519 0.000008 0.890530 -0.119899 0.674423 0.000000 -12.099248 -1.209898 -8.882512 -5.964260 1.790067 0.000000 -7.349763 -0.643022 2.781017 -1.156100 -0.404486 0.000000 -7.265765 -1.281153 9.284607 -0.098019 -0.508628 0.000000 -9.728058 0.000015 -0.000000 -0.000001 0.000000 0.000001 -8.642334 -5.270893 -0.000004 11.841977 4.796579 -17.619333 0.000012 -0.000005 -9.398022 -61.707740 -81.568209 -29.732439 -0.000015 0.000004 27.637175 -22.794160 11.467207 -23.617287 -0.000017 0.000003 2.745332 8.421293 -18.129728 -3.546188 2.953048 -2.636889 -0.000004 -0.000009 -0.000000 -9.456496 0.000004 0.060618 0.000000 0.000000 0.000002 -0.000001 -8.642330 -5.270893 -0.000005 -11.562432 -6.726667 17.619331 -0.000005 0.000017 -0.323452 49.548166 76.495284 29.732450 -0.000018 0.000005 -2.658034 27.399205 1.223919 23.617279 -0.000018 -0.000005 -0.458029 -9.869590 -2.670239 3.546164 2.953042 -2.636866 0.000004 0.000003 -0.000001 9.456443 -0.000013 0.060633 0.000003 0.000000 -0.000001 -12.221852 -0.000002 -0.000003 11.116287 7.378344 -2.456291 0.000002 44.387276 -0.000011 2.282742 0.000001 0.000000 0.000000 37.410252 -0.000016 -8.784234 13.356862 2.249829 -0.000003 4.107742 0.000007 -0.000000 0.000003 -0.000000 -0.000000 0.000009 -16.087215 12.259897 -0.000001 -0.000000 -0.000000 0.000007 -3.506748 -0.000003 -0.000007 0.000000 12.221852 -0.000011 0.000000 -17.030749 -8.268167 -8.462253 -0.000000 44.387260 -0.000006 19.662084 0.000002 0.000003 -0.000005 37.410248 -0.000005 -3.737304 0.548656 10.898555 -0.000004 4.107742 -0.000011 0.000001 0.000000 0.000000 -0.000004 0.000018 -16.087221 -15.495070 0.000002 -0.000000 0.000001 -0.000015 -3.932580 0.000002 0.000001 -0.000000 
-2.622873 -59.344585 -88.666016 88.218676 -0.415827 0.707957 -0.000000 -10.933665 1.754039 13.595932 -0.568631 -0.207242 -0.000000 -9.267542 1.634121 -0.333036 -0.022051 -0.057022 -0.000000 -9.374679 0.820191 -1.363324 -3.155512 -0.279692 0.000001 -9.410525 -0.000002 0.952703 -0.154946 0.627897 0.000000 -12.099220 -1.209942 -8.866745 -6.068763 1.725759 -0.000000 -7.349767 -0.643025 2.802261 -1.197368 -0.460105 0.000001 -7.265788 -1.281141 9.363789 -0.091035 -0.576209 0.000001 -9.728035 -0.000009 -0.000002 0.000001 0.000000 0.000000 -8.642319 -5.270938 -0.000002 11.716711 4.921300 -17.619335 0.000010 0.000005 -8.758445 -62.021150 -80.575851 -29.732460 -0.000007 0.000001 27.570745 -23.024356 11.542045 -23.617275 -0.000024 -0.000004 2.769265 8.269529 -18.587894 -3.546126 2.953046 -2.636885 -0.000003 -0.000003 0.000002 -9.456427 -0.000003 0.060618 0.000002 -0.000002 0.000002 -0.000001 -8.642315 -5.270934 -0.000004 -11.725032 -6.843895 17.619326 0.000021 -0.000004 0.469877 50.170560 75.221823 29.732458 -0.000011 -0.000003 -2.756605 27.850662 1.288614 23.617292 -0.000005 0.000009 -0.203606 -9.972573 -1.175519 3.546159 2.953039 -2.636889 -0.000003 0.000000 0.000001 9.456458 -0.000008 0.060613 0.000001 0.000001 -0.000001 -12.221851 0.000015 -0.000015 10.595543 7.361731 -2.189164 -0.000000 44.387249 -0.000009 2.701023 -0.000001 0.000000 -0.000004 37.410244 -0.000008 -9.314393 13.338647 2.035070 -0.000005 4.107742 -0.000010 0.000000 0.000001 -0.000000 0.000007 0.000004 -16.087221 12.505223 0.000001 -0.000001 -0.000000 0.000007 -3.506768 -0.000004 -0.000002 0.000000 12.221853 0.000018 -0.000005 -16.812569 -8.426968 -8.165600 -0.000001 44.387260 -0.000002 17.556417 0.000002 0.000002 -0.000002 37.410252 -0.000004 -3.183162 -0.250546 11.030409 0.000003 4.107750 0.000006 -0.000000 -0.000000 0.000001 0.000002 0.000009 -16.087210 -15.119513 0.000001 0.000003 0.000000 -0.000000 -3.932589 -0.000001 -0.000001 -0.000001 
